<svg width="24" height="24" viewBox="0 0 24 24" fill="none" xmlns="http://www.w3.org/2000/svg">
<g clip-path="url(#clip0_1462_423)">
<rect width="24" height="24" rx="12" fill="black"/>
<path d="M10.8208 6.64783C10.4904 7.24893 9.97089 8.34076 10.1533 8.9787C10.1533 8.9787 10.4954 7.68123 12.778 6.84885C13.6971 6.51382 14.208 5.74092 14.2491 5.01442C14.2721 4.6027 14.1612 4.20683 14.0432 3.91306C13.9749 3.74075 14.1526 3.58121 14.3245 3.66352C15.3631 4.16309 16.9566 5.18187 16.9305 7.25288C16.9191 8.16195 16.6003 8.9697 16.0998 9.71531C15.7809 10.1918 14.9432 11.196 15.6659 11.6736C16.1816 12.0147 16.6354 11.7036 16.8887 11.4481C16.994 11.3418 17.1827 11.3849 17.2333 11.5276C17.7343 12.9658 17.2926 14.2169 16.6477 15.1804C15.401 17.0427 12.6363 17.6009 10.5179 16.6917C7.87159 15.5558 6.38997 13.1957 6.9749 10.3259C7.21153 9.16768 8.22664 7.11064 10.5707 6.35717C10.7451 6.30009 10.9097 6.48804 10.8208 6.64783Z" fill="url(#paint0_radial_1462_423)"/>
<path d="M13.4611 11.5134C12.5183 10.112 13.1225 8.66018 13.4341 8.08781C13.4758 8.01256 13.3892 7.93059 13.3117 7.97227C12.8308 8.22997 11.8376 8.84859 11.3174 9.79606C10.6132 11.0768 10.598 11.7327 10.8761 12.5596C11.0434 13.0578 10.7914 13.1383 10.6677 13.1455C10.5474 13.153 10.4447 13.0673 10.3644 12.9803C10.1338 12.7265 9.9807 12.4165 9.92237 12.0849C9.90983 12.0139 9.81726 11.9866 9.76922 12.0399C9.40557 12.4443 9.17604 13.1242 9.12489 13.6145C8.96635 15.1302 10.1627 16.4749 11.7402 16.613C13.7284 16.7871 15.3619 14.7999 14.3743 12.9324C14.0878 12.3889 13.8055 12.0249 13.4611 11.5134Z" fill="url(#paint1_radial_1462_423)"/>
<g filter="url(#filter0_d_1462_423)">
<path d="M12.0572 13.6944C12.0581 13.7001 12.0628 13.7043 12.0685 13.7047C12.2368 13.7167 12.3697 13.8584 12.3697 14.0315C12.3697 14.2611 12.1885 14.4997 12.2254 14.7262L12.2856 15.0955C12.3956 15.7703 12.9191 16.2992 13.587 16.4104L14.0158 16.4817C14.2454 16.5199 14.4883 16.3255 14.721 16.3255C14.9002 16.3255 15.0454 16.4721 15.0454 16.6531C15.0454 16.8341 14.9002 16.9808 14.721 16.9808C14.4883 16.9808 14.2454 16.7862 14.0157 16.8245L13.587 16.8958C12.9191 17.007 12.3956 17.5359 12.2856 18.2107L12.215 18.6439C12.1772 18.876 12.3697 19.1215 12.3697 19.3567C12.3697 19.5377 12.2245 19.6843 12.0454 19.6843C11.8663 19.6843 11.7211 19.5377 11.721 19.3567C11.721 19.1215 11.9136 18.876 11.8758 18.6439L11.8052 18.2107C11.6951 17.5359 11.1717 17.007 10.5038 16.8958L10.0749 16.8245C9.84531 16.7862 9.60245 16.9808 9.36974 16.9808C9.19062 16.9808 9.04539 16.8341 9.04539 16.6531C9.04541 16.4721 9.19063 16.3255 9.36974 16.3255C9.60241 16.3255 9.84524 16.5199 10.0748 16.4817L10.5038 16.4104C11.1717 16.2992 11.6952 15.7703 11.8052 15.0955L11.8654 14.7262C11.9023 14.4996 11.721 14.2611 11.721 14.0315C11.7211 13.8584 11.8539 13.7167 12.0222 13.7047C12.0279 13.7043 12.0326 13.7001 12.0336 13.6944C12.0358 13.681 12.055 13.6809 12.0572 13.6944Z" fill="white"/>
</g>
</g>
<rect x="0.25" y="0.25" width="23.5" height="23.5" rx="11.75" stroke="white" stroke-width="0.5"/>
<defs>
<filter id="filter0_d_1462_423" x="-9.8546" y="-5.21567" width="43.8" height="43.8" filterUnits="userSpaceOnUse" color-interpolation-filters="sRGB">
<feFlood flood-opacity="0" result="BackgroundImageFix"/>
<feColorMatrix in="SourceAlpha" type="matrix" values="0 0 0 0 0 0 0 0 0 0 0 0 0 0 0 0 0 0 127 0" result="hardAlpha"/>
<feOffset/>
<feGaussianBlur stdDeviation="9.45"/>
<feComposite in2="hardAlpha" operator="out"/>
<feColorMatrix type="matrix" values="0 0 0 0 1 0 0 0 0 0.867592 0 0 0 0 0.337961 0 0 0 1 0"/>
<feBlend mode="normal" in2="BackgroundImageFix" result="effect1_dropShadow_1462_423"/>
<feBlend mode="normal" in="SourceGraphic" in2="effect1_dropShadow_1462_423" result="shape"/>
</filter>
<radialGradient id="paint0_radial_1462_423" cx="0" cy="0" r="1" gradientTransform="matrix(-7.56132 -3.28296 -5.18357 11.9274 9.98002 16.4988)" gradientUnits="userSpaceOnUse">
<stop stop-opacity="0"/>
<stop offset="0.662" stop-color="#FF2F00" stop-opacity="0.2"/>
<stop offset="0.972" stop-color="white"/>
</radialGradient>
<radialGradient id="paint1_radial_1462_423" cx="0" cy="0" r="1" gradientTransform="matrix(-0.81032 8.25346 6.46037 0.629094 12.5348 8.79901)" gradientUnits="userSpaceOnUse">
<stop offset="0.139423" stop-color="#FFF2BE"/>
<stop offset="0.480769" stop-color="#FFF5E8" stop-opacity="0.7"/>
<stop offset="0.951923" stop-opacity="0"/>
</radialGradient>
<clipPath id="clip0_1462_423">
<rect width="24" height="24" rx="12" fill="white"/>
</clipPath>
</defs>
</svg>
