<?xml version="1.0" encoding="UTF-8"?>
<svg id="_图层_2" data-name="图层 2" xmlns="http://www.w3.org/2000/svg" xmlns:xlink="http://www.w3.org/1999/xlink" viewBox="0 0 24 24">
  <defs>
    <style>
      .cls-1 {
        fill: url(#_未命名的渐变_2);
      }

      .cls-2 {
        stroke: #fff;
        stroke-width: .5px;
      }

      .cls-3 {
        fill: url(#_未命名的渐变);
      }

      .cls-4 {
        fill: #fff;
      }
    </style>
    <radialGradient id="_未命名的渐变" data-name="未命名的渐变" cx="-798" cy="566.15" fx="-798" fy="566.15" r="1" gradientTransform="translate(-8958.67 4148.76) rotate(-156.53) scale(8.24 13.01) skewX(-.03)" gradientUnits="userSpaceOnUse">
      <stop offset="0" stop-color="#000" stop-opacity="0"/>
      <stop offset=".66" stop-color="#ff2f00" stop-opacity=".2"/>
      <stop offset=".97" stop-color="#fff"/>
    </radialGradient>
    <radialGradient id="_未命名的渐变_2" data-name="未命名的渐变 2" cx="-638.47" cy="470.46" fx="-638.47" fy="470.46" r="1" gradientTransform="translate(2534.46 5573.64) rotate(95.61) scale(8.29 6.49) skewX(.04)" gradientUnits="userSpaceOnUse">
      <stop offset=".14" stop-color="#fff2be"/>
      <stop offset=".48" stop-color="#fff5e8" stop-opacity=".7"/>
      <stop offset=".95" stop-color="#000" stop-opacity="0"/>
    </radialGradient>
  </defs>
  <g id="_图层_1-2" data-name="图层 1">
    <circle class="cls-2" cx="12" cy="12" r="11.75"/>
    <path class="cls-3" d="M10.78,5.96c-.33.6-.85,1.69-.67,2.33,0,0,.34-1.3,2.62-2.13.92-.34,1.43-1.11,1.47-1.83.02-.41-.09-.81-.21-1.1-.07-.17.11-.33.28-.25,1.04.5,2.63,1.52,2.61,3.59-.01.91-.33,1.72-.83,2.46-.32.48-1.16,1.48-.43,1.96.52.34.97.03,1.22-.23.11-.11.29-.06.34.08.5,1.44.06,2.69-.59,3.65-1.25,1.86-4.01,2.42-6.13,1.51-2.65-1.14-4.13-3.5-3.54-6.37.24-1.16,1.25-3.22,3.6-3.97.17-.06.34.13.25.29Z"/>
    <path class="cls-1" d="M13.42,10.83c-.94-1.4-.34-2.85-.03-3.43.04-.08-.04-.16-.12-.12-.48.26-1.47.88-1.99,1.82-.7,1.28-.72,1.94-.44,2.76.17.5-.08.58-.21.59-.12,0-.22-.08-.3-.17-.23-.25-.38-.56-.44-.9-.01-.07-.11-.1-.15-.04-.36.4-.59,1.08-.64,1.57-.16,1.52,1.04,2.86,2.62,3,1.99.17,3.62-1.81,2.63-3.68-.29-.54-.57-.91-.91-1.42Z"/>
    <path class="cls-4" d="M11.99,11.56s0,.01.02.02c.26.02.47.23.47.5,0,.35-.28.71-.23,1.06l.09.56c.17,1.02,1,1.83,2.05,2l.67.11c.36.06.74-.24,1.11-.24.28,0,.51.22.51.5,0,.27-.23.5-.51.5-.37,0-.75-.3-1.11-.24l-.67.11c-1.05.17-1.87.97-2.05,2l-.11.66c-.06.35.24.73.24,1.08,0,.27-.23.5-.51.5s-.51-.22-.51-.5c0-.36.3-.73.24-1.08l-.11-.66c-.17-1.02-1-1.83-2.05-2l-.67-.11c-.36-.06-.74.24-1.11.24-.28,0-.51-.22-.51-.5s.23-.5.51-.5c.37,0,.75.3,1.11.24l.67-.11c1.05-.17,1.87-.97,2.05-2l.09-.56c.06-.34-.23-.71-.23-1.06,0-.26.21-.48.47-.5,0,0,.02,0,.02-.02,0-.02.03-.02.04,0Z"/>
  </g>
</svg>