<svg width="46" height="46" viewBox="0 0 46 46" fill="none" xmlns="http://www.w3.org/2000/svg">
<path d="M22.8876 18.4102L24.9159 16.0438L27.6204 20.1004L26.6062 21.1146L25.5921 20.1004L27.9584 17.396L30.3248 20.4385L27.6204 24.1571L28.6345 26.8615H17.1407L18.1549 24.1571L15.4504 20.4385L17.8168 17.396L20.1832 20.1004L19.169 21.1146L18.1549 20.1004L20.8593 16.0438L22.8876 18.4102ZM22.8876 18.4102V11.311V18.4102ZM18.1549 24.1571H27.6204H18.1549Z" fill="black"/>
<path d="M22.8876 18.4102L24.9159 16.0438L27.6204 20.1004L26.6062 21.1146L25.5921 20.1004L27.9584 17.396L30.3248 20.4385L27.6204 24.1571M22.8876 18.4102L20.8593 16.0438L18.1549 20.1004L19.169 21.1146L20.1832 20.1004L17.8168 17.396L15.4504 20.4385L18.1549 24.1571M22.8876 18.4102V11.311M27.6204 24.1571L28.6345 26.8615H17.1407L18.1549 24.1571M27.6204 24.1571H18.1549" stroke="white" stroke-linecap="round" stroke-linejoin="round"/>
<path d="M30.3248 20.4382L27.9584 17.3957L26.7435 18.7845L24.9159 16.0435L22.8876 18.4098L20.8593 16.0435L19.0317 18.7845L17.8168 17.3957L15.4504 20.4382L18.1549 24.1567L17.1407 26.8612H28.6345L27.6204 24.1567L30.3248 20.4382Z" fill="black"/>
<path d="M30.3249 20.4382L27.9585 17.3957L26.7436 18.7845L24.916 16.0435L22.8877 18.4098V26.8612H28.6346L27.6204 24.1567L30.3249 20.4382Z" fill="#FF2F00"/>
<g filter="url(#filter0_d_1538_1549)">
<path d="M22.7094 18.9127C22.7105 18.9199 22.7165 18.9252 22.7237 18.9257C22.9366 18.9408 23.1047 19.12 23.1047 19.339C23.1047 19.6294 22.8755 19.9312 22.9222 20.2177L22.9984 20.6848C23.1375 21.5383 23.7996 22.2073 24.6443 22.3479L25.1868 22.4381C25.4772 22.4864 25.7844 22.2405 26.0787 22.2405C26.3053 22.2405 26.489 22.426 26.489 22.6549C26.489 22.8838 26.3053 23.0694 26.0787 23.0694C25.7844 23.0694 25.4771 22.8233 25.1866 22.8716L24.6443 22.9619C23.7996 23.1025 23.1375 23.7715 22.9984 24.625L22.909 25.1729C22.8612 25.4664 23.1047 25.777 23.1047 26.0745C23.1047 26.3033 22.921 26.4889 22.6945 26.4889C22.468 26.4889 22.2843 26.3033 22.2843 26.0745C22.2843 25.777 22.5278 25.4665 22.4799 25.1729L22.3907 24.625C22.2515 23.7715 21.5894 23.1025 20.7447 22.9619L20.2022 22.8716C19.9118 22.8233 19.6046 23.0694 19.3103 23.0694C19.0837 23.0694 18.9 22.8838 18.9 22.6549C18.9 22.426 19.0837 22.2405 19.3103 22.2405C19.6046 22.2405 19.9117 22.4865 20.2021 22.4382L20.7447 22.3479C21.5894 22.2073 22.2515 21.5383 22.3907 20.6848L22.4668 20.2177C22.5135 19.9311 22.2843 19.6294 22.2843 19.339C22.2843 19.1201 22.4523 18.9409 22.6652 18.9257C22.6724 18.9252 22.6784 18.9199 22.6795 18.9127C22.6823 18.8956 22.7066 18.8956 22.7094 18.9127Z" fill="#FFDD56"/>
</g>
<circle cx="17.5201" cy="20.2797" r="0.689906" fill="white"/>
<circle cx="20.9697" cy="18.2099" r="0.689906" fill="white"/>
<circle cx="25.1091" cy="18.2099" r="0.689906" fill="white"/>
<circle cx="28.5587" cy="20.2797" r="0.689906" fill="white"/>
<path d="M21.9345 10.2816C21.784 10.5891 21.55 11.1489 21.6489 11.483C21.6489 11.483 21.7936 10.8138 22.8869 10.4142C23.3271 10.2534 23.5623 9.85914 23.5703 9.48226C23.5747 9.26867 23.5145 9.06139 23.4525 8.90706C23.4165 8.81654 23.5001 8.73621 23.5848 8.78145C24.0966 9.05597 24.8861 9.60825 24.9073 10.6839C24.9166 11.1561 24.7752 11.5712 24.5447 11.9514C24.3978 12.1944 24.008 12.704 24.3663 12.9626C24.622 13.1472 24.8369 12.9921 24.9556 12.8631C25.0049 12.8093 25.0971 12.8345 25.124 12.9093C25.3905 13.6638 25.1967 14.3075 24.8998 14.7988C24.3256 15.7484 22.994 15.9987 21.9518 15.4957C20.6499 14.8674 19.8928 13.6199 20.1295 12.1372C20.2253 11.5388 20.684 10.4847 21.8084 10.1269C21.8921 10.0998 21.975 10.1998 21.9345 10.2816Z" fill="url(#paint0_radial_1538_1549)"/>
<path d="M23.2945 12.8483C22.8143 12.1066 23.0836 11.361 23.2253 11.0681C23.2444 11.0296 23.201 10.9857 23.1641 11.0063C22.9351 11.1333 22.4636 11.4404 22.2268 11.9252C21.9062 12.5805 21.9096 12.921 22.0579 13.3546C22.1473 13.6159 22.0263 13.6541 21.9665 13.6561C21.9083 13.6582 21.8571 13.6123 21.8167 13.5659C21.7007 13.4307 21.6214 13.2674 21.5877 13.0943C21.5804 13.0572 21.5351 13.0417 21.5127 13.0687C21.3429 13.2736 21.2428 13.6235 21.226 13.8776C21.1739 14.6628 21.776 15.3787 22.5433 15.4732C23.5103 15.5923 24.27 14.5833 23.7605 13.5988C23.6127 13.3122 23.4699 13.119 23.2945 12.8483Z" fill="url(#paint1_radial_1538_1549)"/>
<defs>
<filter id="filter0_d_1538_1549" x="2.47955e-05" y="-9.72748e-05" width="45.389" height="45.3889" filterUnits="userSpaceOnUse" color-interpolation-filters="sRGB">
<feFlood flood-opacity="0" result="BackgroundImageFix"/>
<feColorMatrix in="SourceAlpha" type="matrix" values="0 0 0 0 0 0 0 0 0 0 0 0 0 0 0 0 0 0 127 0" result="hardAlpha"/>
<feOffset/>
<feGaussianBlur stdDeviation="9.45"/>
<feComposite in2="hardAlpha" operator="out"/>
<feColorMatrix type="matrix" values="0 0 0 0 1 0 0 0 0 0.867592 0 0 0 0 0.337961 0 0 0 1 0"/>
<feBlend mode="normal" in2="BackgroundImageFix" result="effect1_dropShadow_1538_1549"/>
<feBlend mode="normal" in="SourceGraphic" in2="effect1_dropShadow_1538_1549" result="shape"/>
</filter>
<radialGradient id="paint0_radial_1538_1549" cx="0" cy="0" r="1" gradientTransform="matrix(-3.72056 -1.81462 -2.31876 6.12254 21.6878 15.3878)" gradientUnits="userSpaceOnUse">
<stop offset="0.314"/>
<stop offset="0.662" stop-color="#AEAEAE"/>
<stop offset="0.972" stop-color="#FFDD56"/>
</radialGradient>
<radialGradient id="paint1_radial_1538_1549" cx="0" cy="0" r="1" gradientTransform="matrix(-0.258015 4.27661 3.14326 0.419891 22.8009 11.4247)" gradientUnits="userSpaceOnUse">
<stop offset="0.214" stop-color="white"/>
<stop offset="0.328" stop-color="#EFEFEF"/>
<stop offset="0.941" stop-color="white" stop-opacity="0"/>
</radialGradient>
</defs>
</svg>
