<svg width="61" height="61" viewBox="0 0 61 61" fill="none" xmlns="http://www.w3.org/2000/svg">
<path opacity="0.15" d="M18.7703 57.823C18.7703 58.3286 20.0061 58.8134 22.2058 59.1709C24.4056 59.5284 27.3891 59.7292 30.5001 59.7292C33.611 59.7292 36.5945 59.5284 38.7943 59.1709C40.994 58.8134 42.2298 58.3286 42.2298 57.823C42.2298 57.3174 40.994 56.8326 38.7943 56.4751C36.5945 56.1176 33.611 55.9167 30.5001 55.9167C27.3891 55.9167 24.4056 56.1176 22.2058 56.4751C20.0061 56.8326 18.7703 57.3174 18.7703 57.823Z" fill="#45413C"/>
<path d="M22.7989 21.4516V10.5224C22.7978 10.4134 22.8318 10.307 22.8958 10.2188C22.9598 10.1306 23.0505 10.0653 23.1544 10.0325C23.2584 9.99978 23.3701 10.0013 23.4731 10.0369C23.5761 10.0725 23.665 10.1402 23.7266 10.2301L29.8266 19.0624C29.8726 19.1254 29.9328 19.1767 30.0024 19.2121C30.0719 19.2474 30.1489 19.2658 30.2269 19.2658C30.3049 19.2658 30.3818 19.2474 30.4514 19.2121C30.521 19.1767 30.5812 19.1254 30.6272 19.0624L37.4135 11.2595C37.482 11.174 37.5764 11.113 37.6825 11.0856C37.7886 11.0581 37.9007 11.0656 38.0021 11.1071C38.1036 11.1485 38.1889 11.2216 38.2454 11.3155C38.3019 11.4094 38.3266 11.519 38.3157 11.628L37.6676 20.3333C37.6613 20.4218 37.6783 20.5104 37.7169 20.5904C37.7555 20.6703 37.8144 20.7387 37.8876 20.7889C37.9609 20.839 38.046 20.8691 38.1345 20.8761C38.223 20.8831 38.3117 20.8668 38.392 20.8289L42.6747 18.8337C42.7661 18.789 42.8689 18.7728 42.9696 18.7872C43.0703 18.8016 43.1644 18.8459 43.2397 18.9143C43.315 18.9828 43.368 19.0722 43.3919 19.1711C43.4158 19.27 43.4094 19.3738 43.3737 19.4691L41.4801 24.8066C41.4585 24.8725 41.4502 24.942 41.4559 25.0112C41.4615 25.0803 41.4808 25.1476 41.5128 25.2091C41.5447 25.2707 41.5886 25.3252 41.642 25.3696C41.6953 25.4139 41.7569 25.4472 41.8232 25.4674L54.0359 28.9495C54.1426 28.9796 54.2365 29.0436 54.3033 29.1319C54.3702 29.2203 54.4064 29.328 54.4064 29.4388C54.4064 29.5496 54.3702 29.6573 54.3033 29.7456C54.2365 29.8339 54.1426 29.898 54.0359 29.928L42.6874 33.372C42.6175 33.3922 42.5529 33.4276 42.4981 33.4756C42.4434 33.5237 42.4 33.5832 42.3708 33.6499C42.3417 33.7166 42.3277 33.7889 42.3297 33.8617C42.3317 33.9345 42.3497 34.0059 42.3824 34.071L48.0757 46.1693C48.1243 46.2662 48.1407 46.3761 48.1224 46.483C48.1041 46.5898 48.0522 46.688 47.9741 46.7633C47.896 46.8385 47.796 46.8868 47.6885 46.9011C47.581 46.9154 47.4718 46.895 47.3768 46.8428L34.7828 40.3616C34.7211 40.3313 34.654 40.3135 34.5854 40.3093C34.5168 40.305 34.4481 40.3144 34.3831 40.3368C34.3181 40.3593 34.2582 40.3943 34.2069 40.44C34.1555 40.4857 34.1137 40.5411 34.0839 40.603L27.7297 54.1374C27.6824 54.2381 27.6034 54.3204 27.5048 54.3719C27.4063 54.4233 27.2935 54.441 27.1839 54.4223C27.0743 54.4035 26.9739 54.3494 26.898 54.2681C26.8221 54.1868 26.775 54.0829 26.7639 53.9722L24.9593 38.6333C24.952 38.5395 24.9181 38.4497 24.8617 38.3745C24.8053 38.2992 24.7287 38.2416 24.6407 38.2083C24.5528 38.1749 24.4571 38.1673 24.365 38.1863C24.2729 38.2053 24.1881 38.2501 24.1205 38.3155L17.5122 44.0216C17.425 44.1016 17.3125 44.1487 17.1943 44.1547C17.0761 44.1607 16.9594 44.1253 16.8645 44.0545C16.7696 43.9837 16.7024 43.882 16.6745 43.767C16.6466 43.6519 16.6597 43.5307 16.7116 43.4243L20.0412 35.7993C20.074 35.7245 20.0883 35.6429 20.083 35.5614C20.0776 35.4799 20.0526 35.4009 20.0103 35.3311C19.9679 35.2612 19.9093 35.2027 19.8394 35.1603C19.7696 35.1179 19.6906 35.093 19.6091 35.0876L6.90074 34.0837C6.7862 34.0752 6.6779 34.0283 6.59346 33.9504C6.50902 33.8726 6.45344 33.7685 6.43575 33.655C6.41807 33.5415 6.43933 33.4254 6.49607 33.3255C6.55282 33.2257 6.6417 33.148 6.74824 33.1051L19.3676 28.0218C19.4387 27.9934 19.5024 27.9494 19.5541 27.8929C19.6058 27.8365 19.644 27.7691 19.666 27.6958C19.688 27.6225 19.6932 27.5451 19.6811 27.4696C19.6691 27.394 19.6401 27.3221 19.5964 27.2593L15.7839 21.782C15.7243 21.7003 15.6905 21.6028 15.6867 21.5018C15.6829 21.4008 15.7092 21.301 15.7624 21.215C15.8156 21.1291 15.8932 21.061 15.9853 21.0193C16.0774 20.9777 16.1798 20.9645 16.2795 20.9814L22.3032 21.9345C22.4316 21.9315 22.554 21.88 22.6459 21.7904C22.7378 21.7008 22.7925 21.5798 22.7989 21.4516Z" fill="url(#paint0_radial_563_1162)"/>
<path d="M30.1949 24.6797L33.766 21.617L34.2743 25.188L37.337 24.6797L36.3204 27.7424L41.4164 28.7591L36.3204 31.8218L40.3997 38.4555L32.7493 34.3761L29.6866 41.5055L28.1616 33.8678L24.0822 34.8845L25.6072 31.8218L21.0195 31.3134L25.0989 28.7591L23.5739 25.188H27.1449V21.1086L30.1949 24.6797Z" fill="url(#paint1_radial_563_1162)"/>
<defs>
<radialGradient id="paint0_radial_563_1162" cx="0" cy="0" r="1" gradientUnits="userSpaceOnUse" gradientTransform="translate(30.418 32.2193) rotate(90) scale(22.2103 23.9883)">
<stop stop-color="#FF6242"/>
<stop offset="1" stop-color="#941900" stop-opacity="0"/>
</radialGradient>
<radialGradient id="paint1_radial_563_1162" cx="0" cy="0" r="1" gradientUnits="userSpaceOnUse" gradientTransform="translate(31.218 31.3071) rotate(90) scale(10.1984)">
<stop stop-color="#FFE500"/>
<stop offset="1" stop-color="white" stop-opacity="0"/>
</radialGradient>
</defs>
</svg>
