<svg xmlns="http://www.w3.org/2000/svg" xmlns:xlink="http://www.w3.org/1999/xlink" width="16" height="16" viewBox="0 0 16 16">
  <defs>
    <clipPath id="clip-path">
      <rect id="矩形_3113" data-name="矩形 3113" width="16" height="16" transform="translate(566 1167)" fill="#fff" stroke="#707070" stroke-width="1"/>
    </clipPath>
  </defs>
  <g id="蒙版组_8" data-name="蒙版组 8" transform="translate(-566 -1167)" clip-path="url(#clip-path)">
    <path id="路径_56441" data-name="路径 56441" d="M142.548,10.582A5.637,5.637,0,0,1,139.636,5.7a6.012,6.012,0,0,1,12.007,0,5.64,5.64,0,0,1-2.912,4.884,2.887,2.887,0,0,1-.666,1.357h-4.851a2.909,2.909,0,0,1-.668-1.357Zm7.38-4.342A4.316,4.316,0,0,0,145.64,1.9c-.38,0-.572.182-.572.542,0,.09.192.27.572.27a3.484,3.484,0,0,1,3.431,3.528c0,.09.192.272.57.272a.424.424,0,0,0,.287-.27Zm-6.86,7.054a.556.556,0,0,1,.57-.54h4a.543.543,0,1,1,0,1.084h-4a.555.555,0,0,1-.57-.542Zm4.878,1.358a2.637,2.637,0,0,1-4.611,0Z" transform="translate(428.246 1167)" fill="#7f4823"/>
  </g>
</svg>
