<?xml version="1.0" encoding="UTF-8"?>
<svg t="1650263321405" class="icon" viewBox="0 0 1024 1024" version="1.1" xmlns="http://www.w3.org/2000/svg"
     p-id="12687" width="48" height="83">
    <path d="M746.666667 85.333333H277.333333a106.773333 106.773333 0 0 0-106.666666 106.666667v640a106.773333 106.773333 0 0 0 106.666666 106.666667h469.333334a106.773333 106.773333 0 0 0 106.666666-106.666667V192a106.773333 106.773333 0 0 0-106.666666-106.666667z m64 746.666667a64.064 64.064 0 0 1-64 64H277.333333a64.064 64.064 0 0 1-64-64V192a64.064 64.064 0 0 1 64-64h469.333334a64.064 64.064 0 0 1 64 64z"
          fill="#646464" p-id="12688"></path>
    <path d="M661.333333 256H362.666667a21.333333 21.333333 0 0 0 0 42.666667h298.666666a21.333333 21.333333 0 0 0 0-42.666667zM661.333333 384H362.666667a21.333333 21.333333 0 0 0 0 42.666667h298.666666a21.333333 21.333333 0 0 0 0-42.666667zM661.333333 512H362.666667a21.333333 21.333333 0 0 0 0 42.666667h298.666666a21.333333 21.333333 0 0 0 0-42.666667zM490.666667 640h-128a21.333333 21.333333 0 0 0 0 42.666667h128a21.333333 21.333333 0 0 0 0-42.666667z"
          fill="#646464" p-id="12689"></path>
</svg>
