<svg xmlns="http://www.w3.org/2000/svg" xmlns:xlink="http://www.w3.org/1999/xlink" width="289" height="344" viewBox="0 0 289 344">
  <defs>
    <filter id="矩形_3873" x="0" y="34" width="289" height="310" filterUnits="userSpaceOnUse">
      <feOffset dy="3" input="SourceAlpha"/>
      <feGaussianBlur stdDeviation="3" result="blur"/>
      <feFlood flood-opacity="0.161"/>
      <feComposite operator="in" in2="blur"/>
      <feComposite in="SourceGraphic"/>
    </filter>
    <linearGradient id="linear-gradient" x1="0.088" y1="0.037" x2="0.967" y2="0.737" gradientUnits="objectBoundingBox">
      <stop offset="0" stop-color="#213750"/>
      <stop offset="1" stop-color="#3e5165"/>
    </linearGradient>
    <linearGradient id="linear-gradient-2" x1="0.622" y1="0.977" x2="-0.045" y2="0.093" gradientUnits="objectBoundingBox">
      <stop offset="0" stop-color="#425569"/>
      <stop offset="1" stop-color="#8ea2b7"/>
    </linearGradient>
    <filter id="路径_60848" x="109.279" y="18.703" width="73.478" height="108.154" filterUnits="userSpaceOnUse">
      <feOffset dy="3" input="SourceAlpha"/>
      <feGaussianBlur stdDeviation="3" result="blur-2"/>
      <feFlood flood-opacity="0.161"/>
      <feComposite operator="in" in2="blur-2"/>
      <feComposite in="SourceGraphic"/>
    </filter>
  </defs>
  <g id="组_25987" data-name="组 25987" transform="translate(-14314 997)">
    <g transform="matrix(1, 0, 0, 1, 14314, -997)" filter="url(#矩形_3873)">
      <rect id="矩形_3873-2" data-name="矩形 3873" width="271" height="292" rx="13" transform="translate(9 40)" fill="#425569"/>
    </g>
    <rect id="矩形_3875" data-name="矩形 3875" width="248" height="158" rx="13" transform="translate(14335 -997)" fill="url(#linear-gradient)"/>
    <path id="减去_5" data-name="减去 5" d="M307,348H62a13,13,0,0,1-13-13V118.294a240.428,240.428,0,0,0,27.948,9.438c10.183,2.8,21.138,5.2,32.561,7.151,11.634,1.984,23.85,3.509,36.307,4.533C158.609,140.467,171.792,141,185,141c13.079,0,26.137-.523,38.812-1.554,12.344-1,24.455-2.5,36-4.448,11.334-1.912,22.216-4.274,32.344-7.021A243.862,243.862,0,0,0,320,118.7V335a13,13,0,0,1-13,13Z" transform="translate(14274 -1013)" fill="url(#linear-gradient-2)"/>
    <g id="组_25956" data-name="组 25956" transform="translate(14365.06 -991.732)">
      <g transform="matrix(1, 0, 0, 1, -51.06, -5.27)" filter="url(#路径_60848)">
        <path id="路径_60848-2" data-name="路径 60848" d="M236,52.206V25.916c0-2.753-1.956-4.993-4.348-4.993H217.127c-2.393,0-4.355,2.24-4.355,4.993V52.2h-11.5c-2.386,0-4.348,2.261-4.348,5.014a5.888,5.888,0,0,0,1.2,3.5l23.426,27.913a4.015,4.015,0,0,0,6.193.132l.1-.132L251.2,60.715a5.687,5.687,0,0,0-.1-7.129,3.974,3.974,0,0,0-3.051-1.387H236.01ZM215.379,15.021h18.454a2.345,2.345,0,0,0,2.171-2.5,2.354,2.354,0,0,0-2.171-2.5H215.379a2.354,2.354,0,0,0-2.171,2.5A2.358,2.358,0,0,0,215.379,15.021Zm0-10.014h18.454A2.345,2.345,0,0,0,236,2.51,2.358,2.358,0,0,0,233.833,0H215.379a2.358,2.358,0,0,0-2.171,2.51A2.354,2.354,0,0,0,215.379,5.007Z" transform="translate(-78.65 24.7)" fill="#5a6e82"/>
      </g>
      <g id="组_25955" data-name="组 25955">
        <path id="路径_60849" data-name="路径 60849" d="M23.054,1.909c-8.629,4.887-3.213,8.866-7.41,19.954-1.611,4.258-4.763,6.991-7.354,9A22.023,22.023,0,0,1,0,34.9c38.949-.632,44.566-14.506,45.188-23.665.626-9.216-13.505-14.21-22.134-9.323Zm2.971,9.845a1.626,1.626,0,0,1-1.685-1.559,1.69,1.69,0,0,1,3.37,0,1.626,1.626,0,0,1-1.685,1.559Zm4.351,7.292a2.48,2.48,0,1,1,2.6-2.477A2.543,2.543,0,0,1,30.376,19.046Zm5.515-7.292a1.626,1.626,0,0,1-1.685-1.559,1.69,1.69,0,0,1,3.37,0A1.626,1.626,0,0,1,35.891,11.754Z" transform="matrix(0.966, -0.259, 0.259, 0.966, 118.815, 18.364)" fill="#3b4f65"/>
        <path id="路径_60851" data-name="路径 60851" d="M12.913,16.419c5.029-2.433,1.873-4.413,4.319-9.932a10.989,10.989,0,0,1,4.286-4.479A13.976,13.976,0,0,1,26.35,0C3.649.315.374,7.22.012,11.779c-.365,4.587,7.872,7.073,12.9,4.64Zm-1.732-4.9a.9.9,0,0,1,.982.776.9.9,0,0,1-.982.776A.9.9,0,0,1,10.2,12.3a.9.9,0,0,1,.982-.776ZM8.645,7.89a1.4,1.4,0,0,1,1.518,1.233,1.4,1.4,0,0,1-1.518,1.233A1.4,1.4,0,0,1,7.127,9.122,1.4,1.4,0,0,1,8.645,7.89Zm-3.214,3.63a.9.9,0,0,1,.982.776.9.9,0,0,1-.982.776.9.9,0,0,1-.982-.776A.9.9,0,0,1,5.431,11.519Z" transform="matrix(-0.921, -0.391, 0.391, -0.921, 146.953, 102.282)" fill="#3b4f65"/>
        <path id="路径_60850" data-name="路径 60850" d="M94.5,84.248c11.939,9.035,4.446,16.391,10.252,36.889,2.23,7.871,6.591,12.925,10.175,16.634,5.75,5.951,11.471,7.46,11.471,7.46-53.889-1.168-61.662-26.816-62.522-43.748C63,84.444,82.556,75.213,94.5,84.248Zm-4.111,18.2a2.948,2.948,0,1,0-2.332-2.883,2.651,2.651,0,0,0,2.332,2.883Zm-6.02,13.48c1.99,0,3.6-2.05,3.6-4.578s-1.613-4.578-3.6-4.578-3.6,2.05-3.6,4.578S82.375,115.928,84.365,115.928Zm-7.63-13.48A2.948,2.948,0,1,0,74.4,99.565,2.651,2.651,0,0,0,76.735,102.447Z" transform="translate(-63.843 -80.719)" fill="#3b4f65" opacity="0.5"/>
      </g>
    </g>
  </g>
</svg>
