<svg xmlns="http://www.w3.org/2000/svg" width="17" height="17" viewBox="0 0 17 17">
    <defs>
        <clipPath id="3immn8fica">
            <path data-name="矩形 3614" transform="translate(121.585 745.071)" style="fill:#fff;stroke:#707070" d="M0 0h17v17H0z"/>
        </clipPath>
    </defs>
    <g data-name="蒙版组 605" transform="translate(-121.585 -745.071)" style="clip-path:url(#3immn8fica)">
        <path data-name="路径 60272" d="M184.411 215.5h.9a.977.977 0 0 1 .977.977v4.883a.977.977 0 0 1-.977.977h-1.778l-4.086-5.9-.475-.673-2.908 1.343a.977.977 0 0 1-.6.071q-1.331-.267-.894-.932a15.948 15.948 0 0 1 3.61-2.591 1.119 1.119 0 0 1 .172-.087 3.085 3.085 0 0 1 3.054.455 15.727 15.727 0 0 0 3 1.482zm-13.078 6.785a.977.977 0 0 1-.667-.926v-4.883a.977.977 0 0 1 .977-.977h2.257a1.265 1.265 0 0 0 .052 1.924 2.623 2.623 0 0 0 2.546.423l2.2-.8 1.54 2.227a.982.982 0 0 1 .127.149l2.7 3.9a.977.977 0 0 1-.37 1.431l-4.313 2.134a.972.972 0 0 1-.625.082l.16-.162a1.953 1.953 0 0 0 0-2.746l-3.125-3.162a1.465 1.465 0 0 0-2.084 0l-1.364 1.38zm3.061-.42 2.771 2.8a.977.977 0 0 1 .249.937l-.14.529a.753.753 0 0 1-1.174.414l-3.563-2.621a.976.976 0 0 1-.116-1.473l.582-.59a.977.977 0 0 1 1.389 0z" transform="translate(-48.394 533.337)" style="fill:#3d6fd9;stroke:transparent"/>
    </g>
</svg>
