<svg xmlns="http://www.w3.org/2000/svg" width="17" height="17" viewBox="0 0 17 17">
    <defs>
        <clipPath id="ukdfoxjnka">
            <path data-name="矩形 3615" transform="translate(121.585 745.071)" style="fill:#fff;stroke:#707070" d="M0 0h17v17H0z"/>
        </clipPath>
    </defs>
    <g data-name="蒙版组 606" transform="translate(-121.585 -745.071)" style="clip-path:url(#ukdfoxjnka)">
        <path data-name="路径 60273" d="M-6379.494-154.58a3.869 3.869 0 0 1-1.507-.546l-1.027-.568c-.546-.3-1.09-.607-1.638-.907a1.415 1.415 0 0 0-1.249-.073 1.18 1.18 0 0 1-1.2-.167 1.475 1.475 0 0 1-.4-.5 4.15 4.15 0 0 1-.45-1.29 3.6 3.6 0 0 1 .074-1.391 1.2 1.2 0 0 1 .695-.858c.389-.19.8-.32 1.2-.481a3.583 3.583 0 0 1 .786-.25 2.493 2.493 0 0 1 1.424.2 3.368 3.368 0 0 1 .794.555c.252.211.492.435.744.645a3.841 3.841 0 0 0 1.132.615 5.6 5.6 0 0 0 1.438.329c.2.02.4 0 .6.021a6.442 6.442 0 0 1 .944.083.573.573 0 0 1 .458.723c-.048.391-.336.542-.668.631a1.593 1.593 0 0 1-.655.054 2.389 2.389 0 0 0-.369-.019h-.206c-.246-.012-.494-.028-.741-.028a8.555 8.555 0 0 1-2.972-.494l-.125-.042a2.068 2.068 0 0 0 .423.39 3.7 3.7 0 0 0 1.7.7.708.708 0 0 0 .1 0c.866 0 1.732.008 2.6 0a2.077 2.077 0 0 0 1.247-.388 1.1 1.1 0 0 0 .483-.912 1.582 1.582 0 0 0-.085-.6 1.043 1.043 0 0 0-.661-.61 2.807 2.807 0 0 0-.812-.149c-.351-.02-.7-.038-1.052-.026a.5.5 0 0 1-.262-.014c.558-.338 1.068-.745 1.654-1.03a1.789 1.789 0 0 1 .618-.2.886.886 0 0 1 .822.405c.058.075.091.088.169.017a1.578 1.578 0 0 1 1.3-.4.664.664 0 0 1 .512.757c.034.02.055-.007.078-.021a2.912 2.912 0 0 1 .845-.352 1 1 0 0 1 .95.25.6.6 0 0 1 .224.3 1.042 1.042 0 0 1-.058.64 2.375 2.375 0 0 1-.736.952c-.521.422-1.047.837-1.587 1.237q-.765.566-1.551 1.1c-.526.357-1.065.691-1.6 1.038a4.3 4.3 0 0 1-1.028.533 3.186 3.186 0 0 1-.99.15 2.093 2.093 0 0 1-.385-.009zm-.313-6.448a3.474 3.474 0 0 1-3.319-3.561 3.469 3.469 0 0 1 1.052-2.423 3.493 3.493 0 0 1 2.446-.988c.064 0 .131 0 .2.006a3.5 3.5 0 0 1 3.3 3.482 3.518 3.518 0 0 1-1.05 2.494 3.468 3.468 0 0 1-2.445 1c-.061-.005-.123-.006-.184-.009zm.7-3.786v1.426h1.832a.716.716 0 0 0 .28-.056.71.71 0 0 0 .229-.154.724.724 0 0 0 .153-.229.71.71 0 0 0 .057-.28.716.716 0 0 0-.125-.406.72.72 0 0 0 .125-.406.711.711 0 0 0-.057-.28.712.712 0 0 0-.153-.228.7.7 0 0 0-.229-.154.717.717 0 0 0-.28-.057h-4.844l-.524.615h1.832a.1.1 0 0 1 .1.1.108.108 0 0 1-.016.057.111.111 0 0 1-.042.037h-1.874v1.438h1.832a.718.718 0 0 0 .28-.056.722.722 0 0 0 .228-.154.74.74 0 0 0 .155-.229.727.727 0 0 0 .055-.28.706.706 0 0 0-.125-.406.707.707 0 0 0 .125-.406.739.739 0 0 0-.007-.1h.182v1.635h.615v-1.635h2.029a.1.1 0 0 1 .1.1.12.12 0 0 1-.017.056.11.11 0 0 1-.042.038h-1.877zm.568.866v-.3h1.262a.151.151 0 0 1 .15.151.15.15 0 0 1-.15.149zm-3.508 0v-.3h1.263a.151.151 0 0 1 .15.151.151.151 0 0 1-.15.149z" transform="translate(6509.347 914.851)" style="fill:#3d6fd9"/>
    </g>
</svg>
