<svg xmlns="http://www.w3.org/2000/svg" xmlns:xlink="http://www.w3.org/1999/xlink" width="287" height="133" viewBox="0 0 287 133">
  <defs>
    <filter id="路径_56443">
      <feOffset dy="2" input="SourceAlpha"/>
      <feGaussianBlur stdDeviation="1" result="blur"/>
      <feFlood flood-opacity="0.161" result="color"/>
      <feComposite operator="out" in="SourceGraphic" in2="blur"/>
      <feComposite operator="in" in="color"/>
      <feComposite operator="in" in2="SourceGraphic"/>
    </filter>
    <linearGradient id="linear-gradient" y1="0.5" x2="1" y2="0.5" gradientUnits="objectBoundingBox">
      <stop offset="0" stop-color="#fef8ea" stop-opacity="0"/>
      <stop offset="0.518" stop-color="#fef8ea"/>
      <stop offset="1" stop-color="#fef8ea" stop-opacity="0"/>
    </linearGradient>
  </defs>
  <g id="组_25157" data-name="组 25157" transform="translate(-6445 230)">
    <g data-type="innerShadowGroup">
      <path id="路径_56443-2" data-name="路径 56443" d="M279,133H26A17,17,0,0,1,9,116V61.834l11.957-6.864a4,4,0,0,0,0-6.938L9,41.167V17A17,17,0,0,1,26,0H279a17,17,0,0,1,17,17V41.741l-10.958,6.29a4,4,0,0,0,0,6.938L296,61.26V116a17,17,0,0,1-17,17Z" transform="translate(6436 -230)" fill="#f09860"/>
      <g transform="matrix(1, 0, 0, 1, 6445, -230)" filter="url(#路径_56443)">
        <path id="路径_56443-3" data-name="路径 56443" d="M279,133H26A17,17,0,0,1,9,116V61.834l11.957-6.864a4,4,0,0,0,0-6.938L9,41.167V17A17,17,0,0,1,26,0H279a17,17,0,0,1,17,17V41.741l-10.958,6.29a4,4,0,0,0,0,6.938L296,61.26V116a17,17,0,0,1-17,17Z" transform="translate(-9)" fill="#fff"/>
      </g>
    </g>
    <rect id="矩形_104" data-name="矩形 104" width="261" height="1" transform="translate(6459 -178.799)" fill="url(#linear-gradient)"/>
  </g>
</svg>
