<svg xmlns="http://www.w3.org/2000/svg" width="19" height="19" viewBox="0 0 19 19">
    <defs>
        <clipPath id="6qzbnmmioa">
            <path data-name="矩形 3616" transform="translate(5.417 -.642)" style="stroke:#707070;fill:#fff" d="M0 0h19v19H0z"/>
        </clipPath>
    </defs>
    <g data-name="蒙版组 607" transform="translate(-5.417 .642)" style="clip-path:url(#6qzbnmmioa)">
        <path data-name="路径 56442" d="M60.167 259.333v-1.667A1.672 1.672 0 0 0 58.5 256H44.334a1.672 1.672 0 0 0-1.667 1.667v6.667A1.672 1.672 0 0 0 44.334 266H58.5a1.672 1.672 0 0 0 1.667-1.667v-1.667a.836.836 0 0 0 .833-.833v-1.667a.836.836 0 0 0-.833-.833zm-.833.833v4.167a.836.836 0 0 1-.833.833H44.334a.836.836 0 0 1-.833-.833v-6.667a.836.836 0 0 1 .833-.833H58.5a.836.836 0 0 1 .833.833z" transform="translate(-36.917 -252.142)" style="fill:#fff"/>
    </g>
</svg>
